<svg xmlns="http://www.w3.org/2000/svg" viewBox="0 0 512 512" width="512" height="512">
  <defs>
    <linearGradient id="mGrad" x1="0" y1="0" x2="0" y2="1">
      <stop offset="0%" stop-color="#EF4444" />
      <stop offset="100%" stop-color="#DC2626" />
    </linearGradient>
    <linearGradient id="dGrad" x1="0" y1="0" x2="0" y2="1">
      <stop offset="0%" stop-color="#FBBF24" />
      <stop offset="100%" stop-color="#F59E0B" />
    </linearGradient>
  </defs>
  <!-- Bold M (Red) — geometric path, x: 20 to 270 -->
  <path d="M 20,432 L 20,80 L 88,80 L 145,236 L 202,80 L 270,80 L 270,432 L 216,432 L 216,196 L 162,340 L 128,340 L 74,196 L 74,432 Z" fill="url(#mGrad)"/>
  <!-- Bold D (Yellow) — geometric path, x: 290 to 492 -->
  <path d="M 290,80 L 380,80 C 404,80 424,86 440,100 C 456,114 466,134 472,160 C 478,186 480,218 480,256 C 480,294 478,326 472,352 C 466,378 456,398 440,412 C 424,426 404,432 380,432 L 290,432 Z M 344,140 L 344,372 L 378,372 C 396,372 409,364 418,348 C 427,332 432,298 432,256 C 432,214 427,180 418,164 C 409,148 396,140 378,140 Z" fill="url(#dGrad)"/>
</svg>
